<svg width="40" height="41" viewBox="0 0 40 41" fill="none" xmlns="http://www.w3.org/2000/svg">
<circle cx="19.9961" cy="20.333" r="20" fill="#4E4E4E"/>
<path d="M22.8517 29.2545L18.435 30.4379C18.1203 30.5222 17.7939 30.3338 17.7096 30.0191C17.6253 29.7045 17.8137 29.378 18.1284 29.2937L22.5451 28.1103C22.8597 28.026 23.1861 28.2144 23.2705 28.5291C23.3548 28.8437 23.1663 29.1701 22.8517 29.2545ZM20.8067 15.6814C20.7672 16.2198 20.4626 16.5233 19.9898 16.5156C19.519 16.508 19.1764 16.1854 19.1877 15.6941C19.1987 15.2161 19.4984 14.902 20.0082 14.9076C20.5178 14.9131 20.7703 15.2142 20.8067 15.6814ZM26.469 13.8669C24.712 10.965 21.232 9.55501 17.999 10.4996C15.1696 11.3263 13.3249 13.1944 12.6541 16.0675C11.9901 18.9113 12.8165 21.3572 14.9081 23.4056C15.3986 23.886 15.8495 24.4679 16.1261 25.0889C16.4033 25.7113 16.4922 25.9059 17.1674 25.7425C18.1052 25.5156 19.0304 25.2369 19.968 25.0091C20.4486 24.8923 20.6313 24.624 20.6281 24.1394C20.6152 22.1838 20.6195 20.228 20.6267 18.2724C20.6282 17.8297 20.4891 17.4652 20.0128 17.4541C19.5306 17.4429 19.383 17.7952 19.3871 18.2465C19.3982 19.5144 19.3904 20.7825 19.3903 22.0504C19.3903 24.0902 19.3903 24.0902 17.3847 24.3833C16.6222 23.5096 15.9279 22.7243 15.2447 21.9293C12.7927 19.0762 13.2411 14.8586 16.3014 12.6742C18.5 11.1047 20.8619 11.0174 23.2167 12.3425C25.4031 13.573 26.5926 16.108 26.2773 18.5603C26.0667 20.1984 25.2845 21.5061 24.1242 22.6302C23.424 23.3087 22.7859 24.0391 22.5562 25.02C22.4488 25.4788 22.1915 25.7064 21.7471 25.8159C21.8301 25.7387 16.9564 27.1044 16.9564 27.1044C16.648 27.1869 16.4634 27.5068 16.546 27.8151L16.5587 27.8628C16.6414 28.1711 16.9612 28.3558 17.2695 28.2732C17.2695 28.2732 22.8617 26.7705 22.935 26.7497C23.4529 26.6067 23.7348 26.2381 23.7466 25.7118C23.7642 24.9263 24.1055 24.3148 24.661 23.7929C24.9584 23.5134 25.2545 23.2314 25.5343 22.9348C27.8441 20.4849 28.2253 16.7679 26.469 13.8669Z" fill="white"/>
</svg>
