<svg width="17" height="17" viewBox="0 0 17 17" fill="none" xmlns="http://www.w3.org/2000/svg">
<g clip-path="url(#clip0_715_7995)">
<path d="M2.27778 2.32031C1.80628 2.32031 1.3541 2.50761 1.0207 2.84101C0.687301 3.17441 0.5 3.62659 0.5 4.09809L0.5 12.0981C0.5 12.5696 0.687301 13.0218 1.0207 13.3552C1.3541 13.6886 1.80628 13.8759 2.27778 13.8759H5.83333V2.32031H2.27778Z" fill="#009A49"/>
<path d="M5.83203 2.32031H11.1654V13.8759H5.83203V2.32031Z" fill="#EEEEEE"/>
<path d="M14.7235 2.32031H11.168V13.8759H14.7235C15.195 13.8759 15.6472 13.6886 15.9806 13.3552C16.314 13.0218 16.5013 12.5696 16.5013 12.0981V4.09809C16.5013 3.62659 16.314 3.17441 15.9806 2.84101C15.6472 2.50761 15.195 2.32031 14.7235 2.32031Z" fill="#009A49"/>
</g>
<defs>
<clipPath id="clip0_715_7995">
<rect width="16" height="16" fill="white" transform="translate(0.5 0.0976562)"/>
</clipPath>
</defs>
</svg>
