<svg width="21" height="21" viewBox="0 0 21 21" fill="none" xmlns="http://www.w3.org/2000/svg">
<g clip-path="url(#clip0_715_7984)">
<path fill-rule="evenodd" clip-rule="evenodd" d="M17.2275 4.31399C18.0169 4.52527 18.6372 5.14554 18.8484 5.93484C19.2303 7.36401 19.2318 10.3477 19.2318 10.3477C19.2318 10.3477 19.2318 13.3312 18.8484 14.7604C18.6372 15.5497 18.0169 16.17 17.2275 16.3812C15.7984 16.7646 10.0651 16.7646 10.0651 16.7646C10.0651 16.7646 4.33179 16.7646 2.9026 16.3812C2.11331 16.17 1.49305 15.5497 1.28176 14.7604C0.898438 13.3312 0.898438 10.3477 0.898438 10.3477C0.898438 10.3477 0.898438 7.36401 1.28176 5.93484C1.49305 5.14554 2.11331 4.52527 2.9026 4.31399C4.33179 3.93066 10.0651 3.93066 10.0651 3.93066C10.0651 3.93066 15.7984 3.93066 17.2275 4.31399ZM12.9929 10.3479L8.23 13.0976V7.59817L12.9929 10.3479Z" fill="white"/>
</g>
<defs>
<clipPath id="clip0_715_7984">
<rect width="20" height="20" fill="white" transform="translate(0.0664062 0.597656)"/>
</clipPath>
</defs>
</svg>
