<svg width="21" height="21" viewBox="0 0 21 21" fill="none" xmlns="http://www.w3.org/2000/svg">
<g clip-path="url(#clip0_715_7967)">
<path d="M10.5011 0.40918C4.87351 0.40918 0.3125 4.97019 0.3125 10.5978C0.3125 16.2255 4.87351 20.7865 10.5011 20.7865C16.1288 20.7865 20.6898 16.2255 20.6898 10.5978C20.6898 4.97019 16.1288 0.40918 10.5011 0.40918ZM14.5686 9.01381C14.5726 9.10137 14.5726 9.19291 14.5726 9.28445C14.5726 12.0505 12.4672 15.2424 8.61466 15.2424C7.43261 15.2424 6.33017 14.8962 5.40682 14.3032C5.57 14.3231 5.73716 14.331 5.9083 14.331C6.88736 14.331 7.79081 13.9967 8.5072 13.4355C7.59181 13.4196 6.81572 12.8147 6.55305 11.9828C6.68041 12.0067 6.81174 12.0187 6.94706 12.0187C7.1381 12.0187 7.32516 11.9948 7.50027 11.943C6.54111 11.752 5.82074 10.9043 5.82074 9.8894V9.86552C6.10331 10.0207 6.42569 10.1163 6.76796 10.1282C6.20679 9.75408 5.83666 9.10933 5.83666 8.38498C5.83666 8.00291 5.94014 7.64073 6.11923 7.3303C7.15402 8.5999 8.69425 9.43171 10.4335 9.51926C10.3977 9.36803 10.3778 9.20883 10.3778 9.04167C10.3778 7.88749 11.317 6.94822 12.4712 6.94822C13.0722 6.94822 13.6174 7.20294 13.9995 7.60889C14.4771 7.51337 14.9229 7.34224 15.3288 7.09946C15.1736 7.58899 14.8393 7.99893 14.4095 8.25762C14.8313 8.20588 15.2373 8.09444 15.6114 7.92729C15.3328 8.34916 14.9786 8.71532 14.5686 9.01381Z" fill="white"/>
</g>
<defs>
<clipPath id="clip0_715_7967">
<rect width="20.3773" height="20.3773" fill="white" transform="translate(0.3125 0.40918)"/>
</clipPath>
</defs>
</svg>
