<svg width="22" height="21" viewBox="0 0 22 21" fill="none" xmlns="http://www.w3.org/2000/svg">
<path d="M13.4083 7.34756C14.2351 7.30727 14.3623 8.66196 13.4549 8.54324C12.7023 8.52204 12.6069 7.36877 13.4083 7.34756Z" fill="#414141"/>
<path d="M16.1166 10.5748C16.1823 5.7264 14.2404 5.09888 9.81179 5.36812C6.76114 5.1328 5.56333 7.44359 5.55487 10.1762C5.38951 12.8517 6.21418 16.233 9.54468 15.949C13.702 15.8748 16.3096 15.4529 16.1166 10.5748ZM8.8472 2.23054C13.6087 1.78747 19.1206 2.4701 19.1864 8.42938C19.3538 11.1726 19.4429 14.1131 18.0988 16.6019C16.6678 19.0357 14.2828 18.9339 11.8025 18.9911C9.62098 19.0781 7.37169 19.2667 5.26867 18.5523C3.12536 17.8103 2.54236 16.1928 2.589 14.077C2.5148 12.256 2.4406 10.4391 2.4724 8.61594C2.5784 4.2954 4.46519 2.13091 8.8472 2.23054Z" fill="white"/>
<path d="M9.81383 5.36789C14.2425 5.09866 16.1822 5.72617 16.1186 10.5746C16.3116 15.4527 13.704 15.8724 9.54882 15.9487C6.21619 16.2328 5.39365 12.8493 5.559 10.176C5.56537 7.44336 6.76315 5.13258 9.81383 5.36789ZM15.1859 10.7272C15.1859 7.72533 14.817 6.13533 11.4081 6.28797C10.3947 6.38761 9.20962 6.23709 8.19203 6.58266C6.14835 7.58116 6.43032 10.3265 6.61901 12.2303C6.80344 15.3064 9.35379 15.2152 11.7409 14.8718C14.6728 14.717 15.2134 13.4514 15.1859 10.7272Z" fill="#414141"/>
<path d="M11.2005 8.75722C9.0424 8.64699 8.37674 12.2022 10.7448 12.2976C12.9707 12.2446 13.3121 9.3911 11.2005 8.75722ZM10.749 7.94103C14.4759 7.68875 14.247 13.1965 10.732 13.1583C7.40154 13.0566 7.71318 8.23783 10.749 7.94103Z" fill="#414141"/>
<path d="M10.7458 12.2979C8.37777 12.2004 9.04133 8.64514 11.2016 8.75749C13.311 9.39137 12.9697 12.2449 10.7458 12.2979Z" fill="white"/>
<path d="M11.4035 6.28766C14.8124 6.1329 15.1834 7.725 15.1813 10.7269C15.2068 13.4511 14.6683 14.7167 11.7363 14.8715C9.34924 15.2149 6.7989 15.3061 6.61446 12.23C6.42578 10.3241 6.14593 7.58083 8.18748 6.58232C9.20507 6.23678 10.3902 6.38729 11.4035 6.28766ZM10.7294 13.1585C14.2422 13.1967 14.4732 7.68896 10.7463 7.94123C7.70836 8.23804 7.39674 13.0568 10.7294 13.1585ZM13.4514 8.54332C14.3588 8.66204 14.2316 7.30947 13.4048 7.34764C12.6034 7.36884 12.6988 8.52211 13.4514 8.54332Z" fill="white"/>
</svg>
