<svg width="21" height="21" viewBox="0 0 21 21" fill="none" xmlns="http://www.w3.org/2000/svg">
<g clip-path="url(#clip0_715_7978)">
<path d="M10.0664 0.597656C4.54297 0.597656 0.0664062 5.07422 0.0664062 10.5977C0.0664062 16.1211 4.54297 20.5977 10.0664 20.5977C15.5898 20.5977 20.0664 16.1211 20.0664 10.5977C20.0664 5.07422 15.5898 0.597656 10.0664 0.597656ZM7.26953 14.7812H5.32031V8.54297H7.26953V14.7812ZM6.24219 7.76172H6.22656C5.51953 7.76172 5.0625 7.28516 5.0625 6.67969C5.0625 6.0625 5.53516 5.59766 6.25391 5.59766C6.97266 5.59766 7.41406 6.0625 7.42969 6.67969C7.43359 7.28125 6.97656 7.76172 6.24219 7.76172ZM15.0664 14.7812H12.8555V11.5547C12.8555 10.7109 12.5117 10.1328 11.75 10.1328C11.168 10.1328 10.8438 10.5234 10.6953 10.8984C10.6406 11.0313 10.6484 11.2187 10.6484 11.4102V14.7812H8.45703C8.45703 14.7812 8.48438 9.0625 8.45703 8.54297H10.6484V9.52344C10.7773 9.09375 11.4766 8.48438 12.5938 8.48438C13.9805 8.48438 15.0664 9.38281 15.0664 11.3125V14.7812Z" fill="white"/>
</g>
<defs>
<clipPath id="clip0_715_7978">
<rect width="20" height="20" fill="white" transform="translate(0.0664062 0.597656)"/>
</clipPath>
</defs>
</svg>
