<svg width="21" height="21" viewBox="0 0 21 21" fill="none" xmlns="http://www.w3.org/2000/svg">
<g clip-path="url(#clip0_715_7981)">
<path d="M11.2395 10.8036C11.2395 13.6787 8.9246 16.0097 6.06889 16.0097C3.2132 16.0097 0.898438 13.6795 0.898438 10.8036C0.898438 7.92769 3.21337 5.59766 6.06889 5.59766C8.92444 5.59766 11.2395 7.92839 11.2395 10.8036ZM16.9118 10.8036C16.9118 13.5102 15.7542 15.7042 14.3264 15.7042C12.8987 15.7042 11.7411 13.5095 11.7411 10.8036C11.7411 8.09764 12.8987 5.90298 14.3264 5.90298C15.7542 5.90298 16.9118 8.09764 16.9118 10.8036ZM19.2318 10.8036C19.2318 13.2286 18.8246 15.1943 18.3224 15.1943C17.8204 15.1943 17.4132 13.2279 17.4132 10.8036C17.4132 8.37926 17.8204 6.41284 18.3227 6.41284C18.8249 6.41284 19.2318 8.37873 19.2318 10.8036Z" fill="white"/>
</g>
<defs>
<clipPath id="clip0_715_7981">
<rect width="20" height="20" fill="white" transform="translate(0.0664062 0.597656)"/>
</clipPath>
</defs>
</svg>
