<svg width="22" height="21" viewBox="0 0 22 21" fill="none" xmlns="http://www.w3.org/2000/svg">
<g clip-path="url(#clip0_715_7964)">
<path d="M11.1222 0.40918C5.49461 0.40918 0.933594 4.97019 0.933594 10.5978C0.933594 16.2255 5.49461 20.7865 11.1222 20.7865C16.7499 20.7865 21.3109 16.2255 21.3109 10.5978C21.3109 4.97019 16.7499 0.40918 11.1222 0.40918ZM13.3709 8.87053L13.2555 10.3949H11.6914V15.6882H9.71732V10.3949H8.66264V8.87053H9.71732V7.84769C9.71732 7.39796 9.72926 6.70147 10.0556 6.26765C10.4019 5.80996 10.8755 5.49952 11.6914 5.49952C13.0207 5.49952 13.5779 5.69056 13.5779 5.69056L13.3152 7.2507C13.3152 7.2507 12.8774 7.12334 12.4675 7.12334C12.0575 7.12334 11.6914 7.2706 11.6914 7.68053V8.87053H13.3709Z" fill="white"/>
</g>
<defs>
<clipPath id="clip0_715_7964">
<rect width="20.3773" height="20.3773" fill="white" transform="translate(0.933594 0.40918)"/>
</clipPath>
</defs>
</svg>
